<svg width="36" height="36" viewBox="0 0 36 36" fill="none" xmlns="http://www.w3.org/2000/svg">
<g clip-path="url(#clip0_30_47)">
<path d="M21.93 3.99303C22.2147 4.07269 22.4809 4.20767 22.7134 4.39028C22.9459 4.57288 23.1402 4.79952 23.2851 5.05723C23.4299 5.31495 23.5226 5.59869 23.5578 5.89224C23.5929 6.18579 23.5699 6.48339 23.49 6.76803L16.8435 30.4485C16.6824 31.0232 16.2996 31.5103 15.7793 31.8027C15.259 32.0951 14.6439 32.1689 14.0692 32.0078C13.4946 31.8467 13.0074 31.4639 12.715 30.9436C12.4226 30.4233 12.3489 29.8082 12.51 29.2335L19.1565 5.55003C19.2363 5.26545 19.3714 4.99939 19.5541 4.76704C19.7367 4.53469 19.9634 4.3406 20.2211 4.19587C20.4788 4.05114 20.7625 3.9586 21.056 3.92354C21.3494 3.88848 21.6469 3.91158 21.9315 3.99153L21.93 3.99303ZM11.34 10.0455C11.7613 10.4674 11.998 11.0393 11.998 11.6355C11.998 12.2318 11.7613 12.8037 11.34 13.2255L6.56997 18L11.343 22.773C11.7649 23.1951 12.0018 23.7675 12.0017 24.3643C12.0015 24.9611 11.7643 25.5334 11.3422 25.9553C10.9201 26.3772 10.3477 26.6141 9.75094 26.614C9.15415 26.6138 8.58187 26.3766 8.15997 25.9545L1.79547 19.59C1.37412 19.1682 1.13745 18.5963 1.13745 18C1.13745 17.4038 1.37412 16.8319 1.79547 16.41L8.15847 10.0455C8.36742 9.83644 8.61552 9.67058 8.8886 9.55742C9.16168 9.44425 9.45438 9.38601 9.74997 9.38601C10.0456 9.38601 10.3383 9.44425 10.6113 9.55742C10.8844 9.67058 11.131 9.83644 11.34 10.0455ZM24.66 13.2255C24.4389 13.0195 24.2616 12.7711 24.1386 12.4951C24.0157 12.2191 23.9495 11.9212 23.9442 11.6191C23.9389 11.317 23.9944 11.0169 24.1076 10.7367C24.2208 10.4566 24.3892 10.2021 24.6029 9.98841C24.8165 9.77476 25.071 9.60632 25.3512 9.49316C25.6313 9.38 25.9314 9.32442 26.2335 9.32975C26.5356 9.33508 26.8336 9.40121 27.1096 9.52418C27.3856 9.64716 27.634 9.82447 27.84 10.0455L34.2045 16.4085C34.6263 16.8305 34.8632 17.4027 34.8632 17.9993C34.8632 18.5959 34.6263 19.1681 34.2045 19.59L27.8415 25.9545C27.6326 26.1635 27.3846 26.3293 27.1116 26.4425C26.8386 26.5556 26.546 26.6139 26.2505 26.614C25.955 26.614 25.6624 26.5559 25.3894 26.4429C25.1163 26.3299 24.8682 26.1642 24.6592 25.9553C24.4502 25.7464 24.2844 25.4984 24.1713 25.2254C24.0581 24.9524 23.9999 24.6598 23.9998 24.3643C23.9997 24.0688 24.0578 23.7762 24.1709 23.5032C24.2839 23.2301 24.4496 22.982 24.6585 22.773L29.4315 18L24.66 13.2255Z" fill="white"/>
</g>
<defs>
<clipPath id="clip0_30_47">
<rect width="36" height="36" fill="white"/>
</clipPath>
</defs>
</svg>
