<svg width="24" height="40" viewBox="0 0 24 40" fill="none" xmlns="http://www.w3.org/2000/svg">
<g clip-path="url(#clip0_14_869)">
<path d="M11.6313 0.00707088C5.06313 0.253165 0 7.41566 0 15.6289V36.2477C0 37.3618 1.07687 37.9188 1.70687 37.1313L3.26437 35.6836C3.68062 35.2969 4.26437 35.3719 4.60875 35.8563L7.29313 39.6336C7.68375 40.1219 8.31688 40.1219 8.7075 39.6336L11.2525 36.0516C11.6506 35.4914 12.35 35.4914 12.7475 36.0516L15.2925 39.6336C15.6831 40.1219 16.3162 40.1219 16.7069 39.6336L19.3913 35.8563C19.7356 35.3719 20.3194 35.2961 20.7356 35.6836L22.2931 37.1313C22.9231 37.9188 24 37.361 24 36.2477V15C24 6.56254 18.4269 -0.247617 11.6313 0.00707088ZM8 17.5C6.89563 17.5 6 16.3805 6 15C6 13.6196 6.89563 12.5 8 12.5C9.10437 12.5 10 13.6196 10 15C10 16.3805 9.10437 17.5 8 17.5ZM16 17.5C14.8956 17.5 14 16.3805 14 15C14 13.6196 14.8956 12.5 16 12.5C17.1044 12.5 18 13.6196 18 15C18 16.3805 17.1044 17.5 16 17.5Z" fill="#717999"/>
</g>
<defs>
<clipPath id="clip0_14_869">
<rect width="24" height="40" fill="white"/>
</clipPath>
</defs>
</svg>
