<svg width="24" height="24" viewBox="0 0 24 24" fill="none" xmlns="http://www.w3.org/2000/svg">
<path d="M9.85887 12.7157C9.85887 12.7157 9.24312 13.074 10.2978 13.1951C11.5754 13.341 12.2285 13.32 13.6362 13.0539C13.6362 13.0539 14.0073 13.2859 14.5241 13.4869C11.3673 14.8393 7.37956 13.4085 9.85887 12.7157ZM9.4728 10.9504C9.4728 10.9504 8.78205 11.4621 9.83749 11.5712C11.2025 11.712 12.2801 11.7236 14.1461 11.3644C14.1461 11.3644 14.4035 11.6261 14.8091 11.7688C10.9931 12.8852 6.74262 11.8568 9.4728 10.9504Z" fill="#0074BD"/>
<path d="M12.7247 7.95579C13.503 8.85167 12.5207 9.65717 12.5207 9.65717C12.5207 9.65717 14.4956 8.63773 13.5887 7.36067C12.7414 6.17023 12.0921 5.57905 15.6082 3.53979C15.6082 3.53979 10.0886 4.91792 12.7247 7.95579Z" fill="#EA2D2E"/>
<path d="M16.8997 14.0215C16.8997 14.0215 17.3557 14.3974 16.3976 14.688C14.5758 15.2398 8.81435 15.4063 7.21403 14.71C6.63916 14.4596 7.71785 14.1124 8.05703 14.0395C8.41085 13.9628 8.61297 13.9768 8.61297 13.9768C7.97322 13.5263 4.47766 14.8616 6.83753 15.2447C13.2733 16.2878 18.5688 14.7748 16.8997 14.0215ZM10.1553 9.12134C10.1553 9.12134 7.22491 9.81752 9.11772 10.0706C9.91722 10.1775 11.5098 10.153 12.9945 10.0285C14.2074 9.92665 15.4247 9.70896 15.4247 9.70896C15.4247 9.70896 14.9973 9.89234 14.6878 10.1035C11.7114 10.8863 5.96285 10.5216 7.61791 9.72134C9.01722 9.04427 10.1553 9.12134 10.1553 9.12134ZM15.4125 12.0595C18.4378 10.4878 17.0388 8.97734 16.0625 9.18077C15.8238 9.23065 15.7166 9.27377 15.7166 9.27377C15.7166 9.27377 15.8057 9.13427 15.975 9.07446C17.9066 8.39571 19.3918 11.0771 15.3521 12.1391C15.3521 12.1391 15.3984 12.0971 15.4125 12.0595Z" fill="#0074BD"/>
<path d="M13.589 0.246216C13.589 0.246216 15.2643 1.92228 11.9997 4.49909C9.38187 6.56665 11.4027 7.74528 11.9986 9.09247C10.4705 7.71359 9.34962 6.49972 10.1015 5.37022C11.2057 3.71234 14.2647 2.90815 13.589 0.246216Z" fill="#EA2D2E"/>
<path d="M10.453 16.3198C13.3562 16.5055 17.8159 16.2165 17.9215 14.8427C17.9215 14.8427 17.7186 15.3634 15.5217 15.7766C13.0433 16.2431 9.98609 16.189 8.17334 15.8897C8.17334 15.8897 8.54459 16.1972 10.453 16.3198Z" fill="#0074BD"/>
<path d="M17.7873 18.7839H17.6988V18.7344H17.9369V18.7839H17.8488V19.0309H17.7871L17.7873 18.7839ZM18.2626 18.7963H18.2615L18.1737 19.0309H18.1332L18.046 18.7963H18.0451V19.0309H17.9866V18.7344H18.0723L18.1531 18.9442L18.2341 18.7344H18.3192V19.0309H18.2626V18.7963ZM9.97698 21.5694C9.70323 21.8068 9.41373 21.9403 9.15367 21.9403C8.78355 21.9403 8.58273 21.7179 8.58273 21.3619C8.58273 20.9766 8.79761 20.6944 9.65861 20.6944H9.97679L9.97698 21.5694ZM10.7328 22.4222V19.7827C10.7328 19.1079 10.3479 18.6628 9.42086 18.6628C8.87973 18.6628 8.40536 18.7967 8.01967 18.9669L8.13067 19.4344C8.43442 19.3228 8.82723 19.2193 9.21273 19.2193C9.74711 19.2193 9.97679 19.4344 9.97679 19.8795V20.2131H9.70979C8.41211 20.2131 7.82655 20.7165 7.82655 21.4736C7.82655 22.1259 8.21242 22.4966 8.93898 22.4966C9.40586 22.4966 9.7548 22.3039 10.0805 22.0217L10.1397 22.4224L10.7328 22.4222ZM13.255 22.4222H12.3125L11.1779 18.7305H12.0012L12.7055 20.9991L12.862 21.6806C13.2175 20.6947 13.4695 19.6939 13.5955 18.7307H14.3964C14.182 19.9459 13.7958 21.2803 13.255 22.4222ZM16.8715 21.5694C16.5969 21.8068 16.3072 21.9403 16.048 21.9403C15.6775 21.9403 15.4769 21.7179 15.4769 21.3619C15.4769 20.9766 15.6924 20.6944 16.5524 20.6944H16.8714L16.8715 21.5694ZM17.6277 22.4222V19.7827C17.6277 19.1079 17.2417 18.6628 16.3154 18.6628C15.7737 18.6628 15.2995 18.7967 14.9139 18.9669L15.025 19.4344C15.3288 19.3228 15.7222 19.2193 16.1077 19.2193C16.6413 19.2193 16.8715 19.4344 16.8715 19.8795V20.2131H16.6045C15.3065 20.2131 14.7211 20.7165 14.7211 21.4736C14.7211 22.1259 15.1066 22.4966 15.833 22.4966C16.3 22.4966 16.6484 22.3039 16.975 22.0217L17.0347 22.4224L17.6277 22.4222ZM6.99779 23.0496C6.78273 23.3644 6.43436 23.6136 6.05336 23.754L5.68042 23.3143C5.97048 23.1654 6.21892 22.9252 6.33461 22.7014C6.43436 22.5021 6.47579 22.2457 6.47579 21.6324V17.4171H7.27904V21.5745C7.27904 22.3948 7.21379 22.7265 6.99779 23.0496Z" fill="#EA2D2E"/>
</svg>
