<svg width="24" height="24" viewBox="0 0 24 24" fill="none" xmlns="http://www.w3.org/2000/svg">
<g clip-path="url(#clip0_37_769)">
<path d="M0 0H24V24H0V0Z" fill="#F7DF1E"/>
<path d="M6.3104 20.0561L8.14696 18.9446C8.50133 19.5728 8.82365 20.1044 9.5968 20.1044C10.3379 20.1044 10.8052 19.8145 10.8052 18.6869V11.0183H13.0606V18.7188C13.0606 21.0548 11.6913 22.1181 9.69346 22.1181C7.88924 22.1181 6.84196 21.1837 6.3103 20.0559M14.2856 19.8144L16.122 18.7512C16.6055 19.5407 17.2338 20.1206 18.3453 20.1206C19.2799 20.1206 19.8757 19.6534 19.8757 19.0089C19.8757 18.2357 19.2636 17.9617 18.2325 17.5108L17.6688 17.2689C16.0416 16.5764 14.9622 15.7064 14.9622 13.8698C14.9622 12.1782 16.251 10.8893 18.2648 10.8893C19.6986 10.8893 20.7297 11.3888 21.4707 12.6937L19.7146 13.8216C19.3279 13.1288 18.9092 12.855 18.2647 12.855C17.6042 12.855 17.1853 13.2739 17.1853 13.8216C17.1853 14.4982 17.6042 14.7722 18.5707 15.1911L19.1346 15.4327C21.0517 16.2544 22.1311 17.092 22.1311 18.9768C22.1311 21.0068 20.5362 22.1183 18.3936 22.1183C16.2993 22.1183 14.946 21.1195 14.2855 19.8145" fill="black"/>
</g>
<defs>
<clipPath id="clip0_37_769">
<rect width="24" height="24" fill="white"/>
</clipPath>
</defs>
</svg>
