<svg width="24" height="24" viewBox="0 0 24 24" fill="none" xmlns="http://www.w3.org/2000/svg">
<g clip-path="url(#clip0_37_732)">
<path d="M23.9865 5.42C23.9954 5.45191 24 5.48482 24 5.51791V10.6605C24 10.7948 23.9259 10.9189 23.8057 10.9857L19.3547 13.4709V18.3964C19.3547 18.4623 19.3368 18.527 19.3029 18.5841C19.2689 18.6412 19.2201 18.6887 19.1614 18.7217L9.87 23.9084C9.84872 23.92 9.82556 23.9275 9.80231 23.9355C9.79359 23.9383 9.78544 23.9435 9.77625 23.9458C9.7113 23.9624 9.64302 23.9624 9.57806 23.9458C9.56738 23.9431 9.55772 23.9374 9.54759 23.9336C9.52631 23.9261 9.50409 23.9195 9.48384 23.9084L0.194344 18.7216C0.135326 18.6888 0.0862865 18.6414 0.0521671 18.5843C0.0180478 18.5272 5.42595e-05 18.4624 0 18.3964L0 2.96873C0 2.93491 0.004875 2.90209 0.0135 2.87027C0.0164062 2.85945 0.0231562 2.84964 0.0270937 2.83882C0.0343125 2.81918 0.0411562 2.799 0.05175 2.78073C0.0589687 2.76855 0.0695625 2.75873 0.0782812 2.74745C0.0894375 2.73246 0.0995625 2.717 0.112594 2.70382C0.12375 2.69309 0.138281 2.68509 0.150844 2.67573C0.164906 2.66445 0.177375 2.65227 0.193312 2.64336H0.193781L4.83872 0.0500915C4.89755 0.0173113 4.96422 6.10352e-05 5.03208 6.10352e-05C5.09993 6.10352e-05 5.1666 0.0173113 5.22544 0.0500915L9.87037 2.64336H9.87131C9.88678 2.65282 9.89991 2.66445 9.91388 2.67527C9.92644 2.68464 9.9405 2.69309 9.95156 2.70345C9.96516 2.717 9.97481 2.73255 9.98634 2.74745C9.99459 2.75873 10.0058 2.76855 10.0125 2.78073C10.0236 2.79945 10.0298 2.81918 10.0376 2.83891C10.0415 2.84964 10.0482 2.85945 10.0511 2.87073C10.06 2.90264 10.0646 2.93564 10.0647 2.96873V12.6045L13.9353 10.4434V5.51746C13.9353 5.48473 13.9402 5.45136 13.9489 5.42C13.9522 5.40873 13.9585 5.39891 13.9624 5.38818C13.9702 5.36845 13.9769 5.34818 13.9875 5.33C13.9947 5.31782 14.0053 5.308 14.0137 5.29673C14.0252 5.28173 14.0348 5.26627 14.0483 5.25309C14.0596 5.24236 14.0736 5.23436 14.0861 5.225C14.1007 5.21373 14.1132 5.20155 14.1287 5.19264H14.1292L18.7746 2.59936C18.8334 2.5665 18.9 2.54919 18.9679 2.54919C19.0358 2.54919 19.1025 2.5665 19.1613 2.59936L23.8062 5.19264C23.8226 5.202 23.8352 5.21373 23.8497 5.22446C23.8617 5.23391 23.8758 5.24236 23.8869 5.25264C23.9004 5.26627 23.9101 5.28173 23.9216 5.29673C23.9304 5.308 23.941 5.31782 23.9479 5.33C23.9589 5.34818 23.9652 5.36845 23.9729 5.38818C23.9773 5.39891 23.9836 5.40873 23.9865 5.42ZM23.2257 10.4435V6.16709L21.6002 7.07445L19.3546 8.32827V12.6046L23.2262 10.4435H23.2257ZM18.5808 18.1794V13.9L16.3718 15.1234L10.0642 18.6143V22.9337L18.5808 18.1794ZM0.774281 3.61782V18.1794L9.28988 22.9334V18.6147L4.84125 16.1733L4.83984 16.1724L4.83797 16.1715C4.82297 16.163 4.81031 16.1508 4.79634 16.1405C4.78416 16.1311 4.77019 16.1236 4.75959 16.1133L4.75866 16.1119C4.74609 16.1002 4.73737 16.0856 4.72678 16.0725C4.71703 16.0598 4.7055 16.0491 4.69772 16.036L4.69725 16.0345C4.68853 16.0205 4.68319 16.0036 4.67691 15.9877C4.67063 15.9736 4.66247 15.9605 4.65853 15.9455V15.9451C4.65375 15.9273 4.65281 15.9085 4.65084 15.8902C4.64897 15.8762 4.64503 15.8621 4.64503 15.848V5.77909L2.39981 4.52473L0.774281 3.61836V3.61782ZM5.03259 0.808455L1.16241 2.96873L5.03166 5.12891L8.90128 2.96818L5.03166 0.808455H5.03259ZM7.04522 14.2901L9.29034 13.0368V3.61782L7.665 4.52527L5.41922 5.779V15.1979L7.04522 14.2901ZM18.9679 3.35773L15.0983 5.51791L18.9679 7.67818L22.837 5.51746L18.9679 3.35773ZM18.5807 8.32827L16.3351 7.07445L14.7097 6.16709V10.4435L16.9548 11.6968L18.5808 12.6046L18.5807 8.32827ZM9.67659 17.9652L15.3525 14.823L18.1898 13.2528L14.3229 11.094L9.87084 13.5795L5.81316 15.8447L9.67659 17.9652Z" fill="#FF2D20"/>
</g>
<defs>
<clipPath id="clip0_37_732">
<rect width="24" height="24" fill="white"/>
</clipPath>
</defs>
</svg>
