<svg width="32" height="22" viewBox="0 0 32 22" fill="none" xmlns="http://www.w3.org/2000/svg">
<g clip-path="url(#clip0_37_671)">
<path d="M9.51937 14.5173L10.4919 17.6998C10.7104 18.4224 10.8015 18.9268 10.765 19.2144C11.2969 17.7776 11.6685 16.2119 11.8799 14.5173H13.0493C12.5464 17.2762 11.8834 19.281 11.0601 20.5317C10.4188 21.4954 9.71613 21.9773 8.951 21.9773C8.747 21.9773 8.4955 21.9151 8.19706 21.7917V21.1267C8.34287 21.1482 8.51394 21.1598 8.71069 21.1598C9.06756 21.1597 9.3554 21.06 9.57419 20.8608C9.83625 20.6182 9.96744 20.3455 9.96744 20.0432C9.96744 19.8369 9.86512 19.4133 9.66144 18.7726L8.30644 14.5173H9.51937ZM2.07644 12.5612L3.85769 18.0426H3.86869L5.66087 12.5612H7.12512C7.44575 15.2796 7.63513 17.7668 7.69325 20.0214H6.45875C6.41525 17.9139 6.29508 15.932 6.09825 14.0757H6.0875L4.20762 20.0214H3.2675L1.399 14.0757H1.388C1.24946 15.8585 1.16204 17.8404 1.12575 20.0214H0C0.07275 17.3688 0.254813 14.8823 0.546188 12.5612H2.07644Z" fill="#00758F"/>
<path d="M22.0312 12.4505C23.9473 12.4505 24.9053 13.6851 24.9053 16.1532C24.9053 17.4944 24.6172 18.5075 24.0415 19.1919C23.9378 19.317 23.8231 19.425 23.7023 19.5251L25.0583 20.2013L25.0569 20.2012L24.5755 21.0398L22.8097 20.0006C22.5169 20.088 22.195 20.1317 21.844 20.1317C20.9032 20.1317 20.2004 19.8552 19.7358 19.3028C19.2258 18.6917 18.9709 17.7297 18.9709 16.4184C18.9709 15.0848 19.2586 14.0755 19.8344 13.3903C20.3589 12.7634 21.0913 12.4505 22.0312 12.4505ZM16.1637 12.4613C16.8485 12.4613 17.4712 12.6461 18.0321 13.0144L17.7472 13.6547C17.2673 13.4489 16.7941 13.3456 16.3274 13.3456C15.9488 13.3456 15.6571 13.4375 15.4537 13.6225C15.2492 13.8058 15.1227 14.0417 15.1227 14.3293C15.1227 14.7712 15.4348 15.1544 16.0111 15.4781C16.1999 15.5822 16.3881 15.6875 16.5756 15.794L16.6186 15.8184L16.6401 15.8306L16.6832 15.855L16.7047 15.8672L16.7477 15.8917C17.1839 16.1398 17.5944 16.3765 17.5944 16.3765C18.1707 16.7891 18.4579 17.229 18.4579 17.9535C18.4579 18.5862 18.2281 19.1055 17.7698 19.5119C17.3113 19.9165 16.6952 20.1194 15.9237 20.1194C15.2021 20.1194 14.5028 19.8859 13.8254 19.4228L14.1423 18.782C14.7253 19.0767 15.2528 19.2239 15.7264 19.2239C16.1707 19.2239 16.5184 19.1238 16.77 18.9263C17.0211 18.7272 17.1715 18.4497 17.1715 18.0978C17.1715 17.6548 16.866 17.2761 16.3056 16.9585C16.1301 16.8607 15.9552 16.762 15.7809 16.6624L15.7379 16.6379C15.6591 16.5929 15.5796 16.5474 15.5018 16.5029L15.4596 16.4786C15.0812 16.2615 14.754 16.0719 14.754 16.0719C14.1938 15.6585 13.9128 15.2151 13.9128 14.4843C13.9128 13.88 14.1223 13.3915 14.5407 13.0199C14.9601 12.6475 15.5011 12.4613 16.1637 12.4613ZM27.1571 12.5611V19.1036H29.4845V20.0213H25.9768V12.5612L27.1571 12.5611ZM30.7778 19.1065V19.2616H30.5219V20.0205H30.3263V19.2616H30.0604V19.1065H30.7778ZM31.2503 19.1065L31.4959 19.7295L31.7216 19.1065H31.9989V20.0205H31.8146V19.3249L31.5577 20.0205H31.4248L31.1674 19.3249H31.1576V20.0205H30.9831V19.1065H31.2503ZM21.9107 13.3679C20.7816 13.3679 20.2167 14.3078 20.2167 16.1863C20.2167 17.2624 20.3664 18.0427 20.6652 18.529C20.9419 18.9791 21.3754 19.2037 21.9656 19.2037C23.0947 19.2037 23.6595 18.2565 23.6595 16.363C23.6595 15.302 23.5098 14.5284 23.2114 14.0418C22.9343 13.5927 22.5011 13.3679 21.9108 13.3679" fill="#F29111"/>
<path d="M18.951 0.462257C19.3256 -0.46603 20.6353 0.236961 21.1435 0.561225C21.2681 0.642354 21.411 0.813752 21.5538 0.877105C21.7766 0.88593 21.9992 0.903517 22.2224 0.91291C22.641 1.01213 23.0332 1.0932 23.363 1.28269C24.896 2.19326 25.894 3.12117 26.8124 4.65386C27.0087 4.9785 27.1067 5.3298 27.267 5.68111C27.4895 6.20476 27.7395 6.75445 27.9978 7.2496C28.1134 7.48435 28.2028 7.74539 28.3634 7.94364C28.4261 8.03429 28.6042 8.06102 28.7106 8.11517C29.0048 8.26879 29.3613 8.38541 29.6381 8.5657C30.1549 8.89072 30.6546 9.27802 31.1088 9.67452C31.2782 9.82758 31.3935 10.0442 31.5548 10.2061V10.2878C31.4117 10.3321 31.269 10.3775 31.1262 10.4139C30.8142 10.4947 30.5379 10.4764 30.2353 10.5573C30.0483 10.612 29.8161 10.6842 29.62 10.7025L29.6381 10.7209C29.7535 11.0535 30.3777 11.3239 30.6632 11.5228C31.01 11.7752 31.3313 12.0813 31.5899 12.4328C31.6792 12.5225 31.7685 12.6042 31.8574 12.6936C31.9195 12.7843 31.937 12.9015 31.9999 12.9823V13.0097C31.9303 12.9849 31.8802 12.9376 31.8328 12.8882L31.8045 12.8584C31.7762 12.8288 31.7476 12.7997 31.715 12.7756C31.5183 12.6401 31.3229 12.478 31.1262 12.352C30.7879 12.1355 30.3956 12.0099 30.0483 11.7926C29.8519 11.6664 29.6647 11.5228 29.4775 11.3784C29.3078 11.2519 29.121 11.009 29.0143 10.8287C28.9515 10.7291 28.9429 10.612 28.8712 10.54C28.884 10.4196 28.9933 10.3839 29.1036 10.3545L29.129 10.3478C29.167 10.3378 29.2043 10.3278 29.2368 10.3147C29.7002 10.1162 30.2526 10.0442 30.966 10.0623C30.9391 9.8816 30.4933 9.65649 30.351 9.54832C30.0654 9.34068 29.763 9.12402 29.46 8.93503C29.2994 8.83606 29.0227 8.76382 28.8448 8.68295C28.6042 8.58372 28.0692 8.48457 27.9358 8.29558C27.7093 7.99767 27.5465 7.64233 27.3885 7.28339L27.3455 7.18543L27.3024 7.08753C27.1157 6.65529 26.8837 6.20464 26.6965 5.76205C26.5986 5.54615 26.5537 5.35666 26.4465 5.14958C25.796 3.87888 24.8333 2.815 23.6662 2.06681C23.2826 1.82336 22.8549 1.59806 22.3828 1.44494C22.1152 1.36344 21.7941 1.40851 21.509 1.34598H21.3214C21.1613 1.30046 21.0276 1.12925 20.9027 1.03898C20.6267 0.849999 20.3503 0.723105 20.0203 0.588268C19.9047 0.534182 19.5745 0.408234 19.4593 0.507391C19.3879 0.525483 19.3517 0.552652 19.3342 0.624893C19.2632 0.732686 19.3256 0.89507 19.3698 0.99448C19.5037 1.28256 19.6907 1.45377 19.8604 1.69722C20.0114 1.91312 20.199 2.15657 20.306 2.39132C20.537 2.89594 20.6446 3.45501 20.8587 3.95956C20.938 4.14931 21.0636 4.36521 21.1792 4.53635C21.2771 4.6722 21.4552 4.77041 21.509 4.94238C21.6164 5.12266 21.3483 5.71755 21.2862 5.90647C21.054 6.64571 21.099 7.67328 21.3664 8.31405L21.3807 8.34784L21.3949 8.38207C21.4925 8.61676 21.597 8.86947 21.8566 8.93509C21.8745 8.91719 21.8566 8.92658 21.892 8.91719C21.9548 8.42121 21.9725 7.94358 22.142 7.55552C22.24 7.31289 22.4355 7.14137 22.5696 6.94331C22.659 6.99727 22.659 7.15996 22.7122 7.26763C22.8282 7.54689 22.9528 7.85306 23.0958 8.13313C23.3893 8.70992 23.7195 9.26913 24.0937 9.77368C24.219 9.9539 24.3968 10.1523 24.5572 10.3146C24.6287 10.3774 24.7087 10.4138 24.7623 10.4946H24.7798V10.5219C24.5125 10.4225 24.343 10.1435 24.1297 9.98057C23.7282 9.6744 23.2474 9.2146 22.9707 8.7734C22.8549 8.52012 22.7298 8.27736 22.605 8.02534V8.00712C22.5517 8.07911 22.5696 8.1506 22.5429 8.25952C22.4272 8.70993 22.5163 9.22374 22.1152 9.38575C21.6606 9.57549 21.3215 9.07958 21.1792 8.85422C20.7244 8.10622 20.5998 6.84434 20.9205 5.82572C20.9918 5.60023 21.0015 5.3298 21.1258 5.14977C21.099 4.98701 20.9746 4.9425 20.9027 4.84278C20.7779 4.67233 20.6711 4.47376 20.5734 4.28446C20.3858 3.91468 20.2523 3.47285 20.1098 3.07629C20.0472 2.91434 20.0293 2.75177 19.9668 2.59846C19.8603 2.36447 19.664 2.12972 19.5126 1.9227C19.3075 1.62517 18.7103 1.0485 18.951 0.462257ZM21.8743 2.22825C21.8981 2.25233 21.9268 2.27338 21.9566 2.29412L21.9925 2.31896C22.0403 2.35237 22.0866 2.38754 22.115 2.43545C22.16 2.49886 22.1683 2.56146 22.2222 2.625C22.2222 2.84166 22.16 2.9857 22.0343 3.07547C22.0343 3.07547 22.0257 3.08492 22.0169 3.09375C21.9457 2.94933 21.8832 2.80567 21.8115 2.66137C21.7231 2.53543 21.5982 2.43551 21.5262 2.2916H21.5088V2.27351C21.6164 2.24672 21.7231 2.22825 21.8743 2.22825Z" fill="#00758F"/>
</g>
<defs>
<clipPath id="clip0_37_671">
<rect width="32" height="22" fill="white"/>
</clipPath>
</defs>
</svg>
