<svg width="24" height="24" viewBox="0 0 24 24" fill="none" xmlns="http://www.w3.org/2000/svg">
<path d="M0 12C0 15.4862 5.37262 18.3126 12 18.3126C18.6274 18.3126 24 15.4862 24 12C24 8.51381 18.6272 5.68744 12 5.68744C5.37281 5.68744 0 8.51381 0 12Z" fill="url(#paint0_radial_37_647)"/>
<path d="M12 17.8438C18.3684 17.8438 23.5312 15.2273 23.5312 12C23.5312 8.77238 18.3684 6.15619 12 6.15619C5.63156 6.15619 0.46875 8.77238 0.46875 12C0.46875 15.2273 5.63156 17.8438 12 17.8438Z" fill="#777BB3"/>
<path d="M6.51985 12.7245C7.04354 12.7245 7.43429 12.6279 7.6816 12.4376C7.92647 12.249 8.09541 11.9225 8.1841 11.4673C8.2666 11.0417 8.2351 10.7447 8.09035 10.5842C7.9426 10.4203 7.62291 10.3372 7.14029 10.3372H6.30329L5.8396 12.7245H6.51985ZM3.78254 15.665C3.76333 15.665 3.74437 15.6607 3.72702 15.6525C3.70966 15.6443 3.69434 15.6323 3.68215 15.6175C3.66997 15.6027 3.66121 15.5853 3.65653 15.5667C3.65184 15.5481 3.65133 15.5286 3.65504 15.5098L4.88447 9.18392C4.89028 9.15435 4.90617 9.12771 4.92941 9.10853C4.95266 9.08935 4.98184 9.07882 5.01197 9.07874H7.6621C8.49497 9.07874 9.11485 9.30486 9.50466 9.75092C9.89616 10.199 10.0173 10.826 9.8641 11.6137C9.80166 11.9345 9.69441 12.2325 9.54535 12.4995C9.39023 12.7741 9.19223 13.0223 8.95885 13.2345C8.67179 13.503 8.34685 13.698 7.99379 13.8125C7.64654 13.9258 7.20029 13.9832 6.66816 13.9832H5.59491L5.28854 15.5597C5.28275 15.5893 5.26683 15.6161 5.2435 15.6353C5.22018 15.6545 5.19089 15.665 5.16066 15.665H3.78254Z" fill="black"/>
<path d="M6.41067 10.4674H7.14024C7.7228 10.4674 7.92511 10.5952 7.99392 10.6716C8.10774 10.7979 8.12949 11.0647 8.05599 11.4426C7.97367 11.8657 7.82105 12.1659 7.60224 12.3343C7.37836 12.5068 7.01386 12.5942 6.5198 12.5942H5.99742L6.41067 10.4674ZM7.66205 8.94861H5.01211C4.95168 8.94862 4.89313 8.96962 4.84648 9.00803C4.79983 9.04644 4.76797 9.09987 4.75636 9.15918L3.52692 15.4852C3.51966 15.5229 3.52081 15.5617 3.53029 15.5989C3.53977 15.6361 3.55735 15.6707 3.58176 15.7004C3.60617 15.73 3.63682 15.7538 3.67152 15.7702C3.70622 15.7866 3.74411 15.7951 3.78249 15.7952H5.16061C5.22104 15.7951 5.27956 15.7741 5.32618 15.7356C5.3728 15.6972 5.40461 15.6437 5.41617 15.5844L5.70211 14.1133H6.66792C7.21392 14.1133 7.67367 14.0537 8.03424 13.9363C8.40492 13.8159 8.74599 13.6117 9.04786 13.3294C9.29098 13.108 9.49725 12.8493 9.65892 12.5631C9.81474 12.2842 9.92686 11.973 9.99174 11.6385C10.153 10.8092 10.0219 10.1452 9.60249 9.66524C9.18699 9.18955 8.53411 8.94843 7.66205 8.94843V8.94861ZM5.68149 12.8544H6.5198C7.07542 12.8546 7.48917 12.7499 7.76105 12.5404C8.03292 12.3311 8.21655 11.9817 8.31192 11.4921C8.40293 11.0218 8.36136 10.6901 8.18724 10.4968C8.01286 10.3036 7.66386 10.2069 7.14024 10.2069H6.19599L5.68149 12.8544ZM7.66224 9.20849C8.45949 9.20849 9.04092 9.41774 9.40655 9.83624C9.77217 10.2547 9.88217 10.8389 9.73655 11.5886C9.6763 11.8976 9.57474 12.18 9.43186 12.4357C9.28874 12.6917 9.1018 12.9259 8.87105 13.1383C8.59605 13.3958 8.2903 13.5792 7.9538 13.6886C7.61742 13.7981 7.18886 13.8528 6.66811 13.8527H5.48761L5.1608 15.5346H3.78267L5.0123 9.20849H7.66224Z" fill="white"/>
<path d="M13.0236 13.9832C13.0044 13.9832 12.9854 13.979 12.9681 13.9708C12.9507 13.9626 12.9353 13.9507 12.9231 13.9358C12.9109 13.921 12.9021 13.9037 12.8973 13.885C12.8926 13.8664 12.8921 13.847 12.8958 13.8281L13.4395 11.0291C13.4914 10.7629 13.4787 10.572 13.4039 10.491C13.3579 10.4417 13.2203 10.359 12.8133 10.359H11.8278L11.1441 13.878C11.1383 13.9076 11.1223 13.9343 11.0989 13.9534C11.0756 13.9726 11.0463 13.983 11.0161 13.983H9.6492C9.63 13.983 9.61103 13.9788 9.59365 13.9706C9.57628 13.9624 9.56092 13.9505 9.54868 13.9357C9.53645 13.9209 9.52763 13.9036 9.52287 13.885C9.51811 13.8664 9.51752 13.847 9.52113 13.8281L10.7508 7.50204C10.7566 7.4724 10.7725 7.44571 10.7958 7.42652C10.8192 7.40734 10.8484 7.39685 10.8786 7.39685H12.2455C12.2647 7.39684 12.2837 7.40107 12.3011 7.40924C12.3184 7.41741 12.3338 7.42932 12.346 7.44412C12.3583 7.45892 12.3671 7.47624 12.3718 7.49484C12.3766 7.51344 12.3772 7.53287 12.3736 7.55173L12.0769 9.07873H13.1369C13.9444 9.07873 14.4919 9.22085 14.8109 9.51391C15.1358 9.8126 15.2374 10.2902 15.1124 10.9339L14.5403 13.878C14.5345 13.9076 14.5185 13.9342 14.4952 13.9534C14.4719 13.9725 14.4426 13.983 14.4124 13.983L13.0236 13.9832Z" fill="black"/>
<path d="M12.2457 7.26654H10.8786C10.8181 7.26655 10.7596 7.28758 10.7129 7.32603C10.6663 7.36448 10.6344 7.41795 10.6229 7.47729L9.39342 13.8032C9.38612 13.8409 9.38725 13.8797 9.39671 13.9169C9.40618 13.9541 9.42375 13.9888 9.44817 14.0184C9.47258 14.048 9.50324 14.0719 9.53796 14.0883C9.57267 14.1047 9.61058 14.1132 9.64898 14.1133H11.016C11.0765 14.1133 11.1351 14.0922 11.1817 14.0538C11.2284 14.0154 11.2602 13.9619 11.2718 13.9025L11.935 10.4891H12.8129C13.2194 10.4891 13.3049 10.5759 13.308 10.5799C13.3328 10.6061 13.3652 10.7289 13.3116 11.0044L12.7679 13.8032C12.7606 13.8409 12.7617 13.8797 12.7712 13.917C12.7806 13.9542 12.7982 13.9888 12.8227 14.0185C12.8471 14.0481 12.8778 14.072 12.9125 14.0884C12.9473 14.1048 12.9852 14.1133 13.0236 14.1133H14.4126C14.473 14.1132 14.5316 14.0922 14.5782 14.0537C14.6248 14.0153 14.6566 13.9618 14.6682 13.9025L15.2402 10.9588C15.3743 10.2677 15.2595 9.74942 14.899 9.4181C14.5547 9.10198 13.9784 8.94842 13.1369 8.94842H12.235L12.5014 7.57685C12.5087 7.53913 12.5076 7.50025 12.4982 7.463C12.4887 7.42576 12.4711 7.39106 12.4467 7.36141C12.4223 7.33175 12.3916 7.30787 12.3568 7.29147C12.322 7.27507 12.2841 7.26655 12.2457 7.26654ZM12.2457 7.52717L11.9189 9.20867H13.1369C13.9032 9.20867 14.4318 9.34242 14.7225 9.60992C15.0135 9.87717 15.1009 10.3103 14.9847 10.9093L14.4124 13.8529H13.0236L13.5675 11.0539C13.6294 10.7355 13.6066 10.5184 13.4991 10.4025C13.3916 10.2867 13.163 10.2289 12.8132 10.2289H11.7203L11.016 13.8527H9.64879L10.8784 7.5266H12.2457V7.52717Z" fill="white"/>
<path d="M17.2755 12.7245C17.7992 12.7245 18.1901 12.6279 18.4376 12.4376C18.6821 12.249 18.8513 11.9225 18.94 11.4673C19.0225 11.0417 18.9911 10.7447 18.8462 10.5842C18.6985 10.4203 18.3788 10.3372 17.8961 10.3372H17.0593L16.5953 12.7245H17.2755ZM14.5388 15.665C14.5195 15.6651 14.5005 15.6608 14.4831 15.6526C14.4657 15.6445 14.4504 15.6325 14.4381 15.6177C14.4259 15.6028 14.4171 15.5854 14.4124 15.5668C14.4077 15.5481 14.4072 15.5287 14.4109 15.5098L15.6403 9.18392C15.6462 9.15429 15.6621 9.1276 15.6854 9.10841C15.7087 9.08922 15.738 9.07873 15.7682 9.07874H18.4181C19.251 9.07874 19.8709 9.30486 20.2605 9.75092C20.6522 10.199 20.7731 10.826 20.62 11.6137C20.5613 11.924 20.4538 12.223 20.3014 12.4995C20.1463 12.7741 19.9483 13.0223 19.7149 13.2345C19.428 13.503 19.1027 13.698 18.7498 13.8125C18.4026 13.9258 17.9563 13.9832 17.424 13.9832H16.351L16.0448 15.5597C16.039 15.5894 16.023 15.6161 15.9997 15.6354C15.9763 15.6546 15.947 15.6651 15.9167 15.665H14.5388Z" fill="black"/>
<path d="M17.1665 10.4674H17.8961C18.4787 10.4674 18.681 10.5952 18.7496 10.6716C18.864 10.7979 18.8853 11.0647 18.812 11.4426C18.7295 11.8657 18.5769 12.1659 18.3581 12.3343C18.134 12.5068 17.7695 12.5942 17.2757 12.5942H16.7533L17.1665 10.4674ZM18.4179 8.94861H15.768C15.7076 8.94866 15.6491 8.96969 15.6025 9.00809C15.5558 9.0465 15.524 9.0999 15.5124 9.15918L14.2828 15.4852C14.2755 15.5229 14.2767 15.5618 14.2862 15.599C14.2957 15.6362 14.3132 15.6708 14.3377 15.7004C14.3621 15.73 14.3928 15.7539 14.4275 15.7703C14.4622 15.7866 14.5001 15.7952 14.5385 15.7952H15.9167C15.9771 15.7951 16.0356 15.7741 16.0822 15.7356C16.1288 15.6972 16.1607 15.6437 16.1722 15.5844L16.4582 14.1133H17.4238C17.9696 14.1133 18.4295 14.0537 18.7899 13.9363C19.1608 13.8159 19.5018 13.6117 19.8039 13.3292C20.0469 13.1079 20.2531 12.8493 20.4148 12.5631C20.5708 12.2842 20.6825 11.973 20.7476 11.6385C20.9088 10.8092 20.778 10.1452 20.3583 9.66524C19.9428 9.18955 19.2902 8.94843 18.4177 8.94843L18.4179 8.94861ZM16.4373 12.8544H17.2755C17.8311 12.8546 18.245 12.7499 18.5171 12.5404C18.789 12.3311 18.9725 11.9817 19.0676 11.4921C19.159 11.0218 19.1174 10.6901 18.9429 10.4968C18.7684 10.3036 18.4195 10.2069 17.8961 10.2069H16.952L16.4373 12.8544ZM18.4179 9.20849C19.2152 9.20849 19.7966 9.41774 20.1622 9.83624C20.5278 10.2547 20.6378 10.8389 20.492 11.5886C20.432 11.8976 20.3305 12.18 20.1875 12.4357C20.0445 12.6917 19.8575 12.9259 19.6265 13.1383C19.3515 13.3958 19.0458 13.5792 18.7093 13.6886C18.373 13.7981 17.9445 13.8528 17.4238 13.8527H16.2435L15.9163 15.5346H14.5382L15.7678 9.20849H18.4179Z" fill="white"/>
<defs>
<radialGradient id="paint0_radial_37_647" cx="0" cy="0" r="1" gradientUnits="userSpaceOnUse" gradientTransform="translate(7.20487 7.90669) scale(15.7578)">
<stop stop-color="#AEB2D5"/>
<stop offset="0.3" stop-color="#AEB2D5"/>
<stop offset="0.75" stop-color="#484C89"/>
<stop offset="1" stop-color="#484C89"/>
</radialGradient>
</defs>
</svg>
