<svg width="24" height="24" viewBox="0 0 24 24" fill="none" xmlns="http://www.w3.org/2000/svg">
<path d="M11.9137 1.57498C6.58875 1.57498 6.9255 3.87748 6.9255 3.87748V6.26998H11.9895V7.01998H4.90875C4.90875 7.01998 1.5 6.59998 1.5 12.0037C1.5 17.4075 4.50975 17.1877 4.50975 17.1877H6.2475V14.667C6.2475 14.667 6.15 11.6572 9.1725 11.6572H14.244C14.244 11.6572 17.073 11.7022 17.073 8.91823V4.34998C17.073 4.34998 17.502 1.56598 11.9415 1.56598L11.9137 1.57498ZM9.11475 3.17773C9.29478 3.17319 9.47211 3.22213 9.62432 3.31838C9.77654 3.41463 9.89679 3.55385 9.96987 3.71844C10.043 3.88303 10.0656 4.0656 10.0349 4.24305C10.0042 4.42051 9.92161 4.58488 9.79751 4.71538C9.67341 4.84588 9.51339 4.93665 9.3377 4.9762C9.16201 5.01576 8.97854 5.00233 8.81049 4.93761C8.64243 4.87288 8.49734 4.75978 8.39357 4.61259C8.2898 4.46541 8.23201 4.29076 8.2275 4.11073V4.09573C8.2275 3.85425 8.32343 3.62266 8.49418 3.45191C8.66493 3.28116 8.89652 3.18523 9.138 3.18523L9.11475 3.17773Z" fill="url(#paint0_linear_37_665)"/>
<path d="M12.0637 22.4325C17.3887 22.4325 17.052 20.1225 17.052 20.1225V17.7375H11.9887V16.9875H19.0912C19.0912 16.9875 22.5 17.3685 22.5 11.9963C22.5 6.62402 19.4902 6.81227 19.4902 6.81227H17.73V9.30002C17.73 9.30002 17.8275 12.3098 14.805 12.3098H9.73125C9.73125 12.3098 6.9 12.267 6.9 15.051V19.65C6.9 19.65 6.471 22.434 12.0315 22.434H12.0615L12.0637 22.4325ZM14.8628 20.8223C14.6827 20.8268 14.5054 20.7779 14.3532 20.6816C14.201 20.5854 14.0807 20.4461 14.0076 20.2816C13.9345 20.117 13.9119 19.9344 13.9426 19.7569C13.9733 19.5795 14.0559 19.4151 14.18 19.2846C14.3041 19.1541 14.4641 19.0634 14.6398 19.0238C14.8155 18.9842 14.999 18.9977 15.167 19.0624C15.3351 19.1271 15.4802 19.2402 15.5839 19.3874C15.6877 19.5346 15.7455 19.7092 15.75 19.8893V19.9118C15.75 20.1532 15.6541 20.3848 15.4833 20.5556C15.3126 20.7263 15.081 20.8223 14.8395 20.8223H14.8628Z" fill="url(#paint1_linear_37_665)"/>
<defs>
<linearGradient id="paint0_linear_37_665" x1="3.57537" y1="3.61715" x2="13.5404" y2="13.5596" gradientUnits="userSpaceOnUse">
<stop stop-color="#387EB8"/>
<stop offset="1" stop-color="#366994"/>
</linearGradient>
<linearGradient id="paint1_linear_37_665" x1="9.47062" y1="10.0939" x2="20.8558" y2="20.0334" gradientUnits="userSpaceOnUse">
<stop stop-color="#FFE052"/>
<stop offset="1" stop-color="#FFC331"/>
</linearGradient>
</defs>
</svg>
