<svg width="24" height="24" viewBox="0 0 24 24" fill="none" xmlns="http://www.w3.org/2000/svg">
<path d="M3.61792 18.3135V5.677M20.3819 9.937C20.3819 11.597 16.6579 12.93 11.9999 12.93C7.34192 12.93 3.61792 11.6015 3.61792 9.9415M20.3819 14.0635C20.3819 15.7235 16.6584 17.052 11.9999 17.052C7.34142 17.052 3.61792 15.724 3.61792 14.0635M3.61842 18.3185C3.61842 19.917 7.34142 21.25 11.9999 21.25C16.6584 21.25 20.3819 19.917 20.3819 18.3185V5.677M20.3819 5.6815C20.3819 7.3415 16.6579 8.67 11.9999 8.67C7.34192 8.67 3.61792 7.342 3.61792 5.6815C3.75092 4.083 7.41292 2.75 11.9334 2.75C16.5254 2.75 20.2489 4.078 20.3819 5.6815Z" stroke="white" stroke-linecap="round" stroke-linejoin="round"/>
</svg>
