<svg width="32" height="33" viewBox="0 0 32 33" fill="none" xmlns="http://www.w3.org/2000/svg">
<path d="M16.4999 17.44V25.44C16.4999 25.8378 16.3419 26.2194 16.0606 26.5007C15.7793 26.782 15.3978 26.94 14.9999 26.94C14.6021 26.94 14.2206 26.782 13.9393 26.5007C13.658 26.2194 13.4999 25.8378 13.4999 25.44V21.065L6.0612 28.5013C5.92167 28.6408 5.75602 28.7515 5.57372 28.827C5.39141 28.9025 5.19602 28.9414 4.9987 28.9414C4.80137 28.9414 4.60598 28.9025 4.42367 28.827C4.24137 28.7515 4.07573 28.6408 3.9362 28.5013C3.79667 28.3617 3.68599 28.1961 3.61047 28.0138C3.53496 27.8315 3.49609 27.6361 3.49609 27.4388C3.49609 27.2414 3.53496 27.046 3.61047 26.8637C3.68599 26.6814 3.79667 26.5158 3.9362 26.3763L11.3749 18.94H6.99995C6.60212 18.94 6.22059 18.782 5.93929 18.5007C5.65798 18.2194 5.49995 17.8378 5.49995 17.44C5.49995 17.0422 5.65798 16.6606 5.93929 16.3793C6.22059 16.098 6.60212 15.94 6.99995 15.94H14.9999C15.3978 15.94 15.7793 16.098 16.0606 16.3793C16.3419 16.6606 16.4999 17.0422 16.4999 17.44ZM25.9999 3.94H9.99995C9.3369 3.94 8.70102 4.20339 8.23218 4.67224C7.76334 5.14108 7.49995 5.77696 7.49995 6.44V11.94C7.49995 12.3378 7.65798 12.7194 7.93929 13.0007C8.22059 13.282 8.60212 13.44 8.99995 13.44C9.39777 13.44 9.7793 13.282 10.0606 13.0007C10.3419 12.7194 10.4999 12.3378 10.4999 11.94V6.94H25.4999V21.94H20.4999C20.1021 21.94 19.7206 22.098 19.4393 22.3793C19.158 22.6606 18.9999 23.0422 18.9999 23.44C18.9999 23.8378 19.158 24.2194 19.4393 24.5007C19.7206 24.782 20.1021 24.94 20.4999 24.94H25.9999C26.663 24.94 27.2989 24.6766 27.7677 24.2078C28.2366 23.7389 28.4999 23.103 28.4999 22.44V6.44C28.4999 5.77696 28.2366 5.14108 27.7677 4.67224C27.2989 4.20339 26.663 3.94 25.9999 3.94Z" fill="black"/>
</svg>
